<svg xmlns="http://www.w3.org/2000/svg" xmlns:xlink="http://www.w3.org/1999/xlink" id="svg590" width="210mm" height="297mm" version="1.1" viewBox="0 0 210 297"><defs id="defs584"><linearGradient id="linearGradient6779" x1="319.978" x2="339.085" y1="808.275" y2="788.63" gradientUnits="userSpaceOnUse" xlink:href="#linearGradient6115"/><linearGradient id="linearGradient6115"><stop style="stop-color:#fff;stop-opacity:1" id="stop6117" offset="0"/><stop style="stop-color:#fff;stop-opacity:0" id="stop6119" offset="1"/></linearGradient><clipPath id="clipPath6326" clipPathUnits="userSpaceOnUse"><rect id="rect6328" width="62.467" height="58.107" x="278.592" y="791.352" ry="7.681" style="fill:none;stroke:#e3d7eb;stroke-width:1.52146721;stroke-linecap:round;stroke-linejoin:round;stroke-miterlimit:4;stroke-dasharray:none;stroke-opacity:1"/></clipPath><filter style="color-interpolation-filters:sRGB" id="filter6654"><feGaussianBlur id="feGaussianBlur6656" stdDeviation=".449"/></filter><linearGradient id="linearGradient6781" x1="295.993" x2="345.269" y1="827.13" y2="785.752" gradientUnits="userSpaceOnUse" xlink:href="#linearGradient5880"/><linearGradient id="linearGradient5880"><stop id="stop5882" offset="0" style="stop-color:#8d89c2;stop-opacity:1"/><stop id="stop5884" offset="1" style="stop-color:#fffff9;stop-opacity:.98275864"/></linearGradient><clipPath id="clipPath6322" clipPathUnits="userSpaceOnUse"><rect id="rect6324" width="54.94" height="53.396" x="282.071" y="791.18" ry="7.059" style="fill:none;stroke:#e3d7eb;stroke-width:1.36779618;stroke-linecap:round;stroke-linejoin:round;stroke-miterlimit:4;stroke-dasharray:none;stroke-opacity:1"/></clipPath><filter style="color-interpolation-filters:sRGB" id="filter6650"><feGaussianBlur id="feGaussianBlur6652" stdDeviation=".404"/></filter><linearGradient id="linearGradient6783" x1="113.763" x2="104.471" y1="496.373" y2="486.989" gradientUnits="userSpaceOnUse" xlink:href="#linearGradient5880"/><clipPath id="clipPath6318" clipPathUnits="userSpaceOnUse"><rect id="rect6320" width="17.856" height="17.485" x="478.406" y="-113.349" ry="2.311" transform="rotate(90)" style="fill:none;stroke:#e3d7eb;stroke-width:.44622806;stroke-linecap:round;stroke-linejoin:round;stroke-miterlimit:4;stroke-dasharray:none;stroke-opacity:1"/></clipPath><filter style="color-interpolation-filters:sRGB" id="filter6646"><feGaussianBlur id="feGaussianBlur6648" stdDeviation=".132"/></filter><linearGradient id="linearGradient6785" x1="113.118" x2="102.379" y1="495.984" y2="484.347" gradientUnits="userSpaceOnUse" xlink:href="#linearGradient5880"/><clipPath id="clipPath6314" clipPathUnits="userSpaceOnUse"><rect id="rect6316" width="22.018" height="20.53" x="478.375" y="-117.269" ry="2.714" transform="rotate(90)" style="fill:none;stroke:#e3d7eb;stroke-width:.53691387;stroke-linecap:round;stroke-linejoin:round;stroke-miterlimit:4;stroke-dasharray:none;stroke-opacity:1"/></clipPath><filter style="color-interpolation-filters:sRGB" id="filter6642"><feGaussianBlur id="feGaussianBlur6644" stdDeviation=".159"/></filter><linearGradient id="linearGradient6787" x1="113.11" x2="101.533" y1="496.126" y2="483.054" gradientUnits="userSpaceOnUse" xlink:href="#linearGradient5880"/><clipPath id="clipPath6310" clipPathUnits="userSpaceOnUse"><rect id="rect6312" width="30.026" height="28.464" x="478.777" y="-124.217" ry="3.763" transform="rotate(90)" style="fill:none;stroke:#e3d7eb;stroke-width:.73827261;stroke-linecap:round;stroke-linejoin:round;stroke-miterlimit:4;stroke-dasharray:none;stroke-opacity:1"/></clipPath><filter style="color-interpolation-filters:sRGB" id="filter6638"><feGaussianBlur id="feGaussianBlur6640" stdDeviation=".218"/></filter><linearGradient id="linearGradient6789" x1="110.441" x2="96.31" y1="493.233" y2="479.097" gradientUnits="userSpaceOnUse" xlink:href="#linearGradient5028"/><linearGradient id="linearGradient5028"><stop style="stop-color:#6f1171;stop-opacity:1" id="stop5030" offset="0"/><stop style="stop-color:#bea1c7;stop-opacity:1" id="stop5032" offset="1"/></linearGradient><clipPath id="clipPath6306" clipPathUnits="userSpaceOnUse"><rect id="rect6308" width="40.16" height="38.738" x="479.47" y="-135.258" ry="5.121" transform="rotate(90)" style="fill:none;stroke:#e3d7eb;stroke-width:.99606657;stroke-linecap:round;stroke-linejoin:round;stroke-miterlimit:4;stroke-dasharray:none;stroke-opacity:1"/></clipPath><filter style="color-interpolation-filters:sRGB" id="filter6634"><feGaussianBlur id="feGaussianBlur6636" stdDeviation=".294"/></filter></defs><metadata id="metadata587"/><g id="layer1"><g id="g847"><g style="stroke-width:.24766427" id="g6666" transform="matrix(1.055458,0,0,1.0813269,-189.89281,-736.13138)"><rect style="fill:url(#linearGradient6779);fill-opacity:1;stroke:none;stroke-width:.24766427;filter:url(#filter6654)" id="rect5036" width="58.215" height="58.328" x="278.023" y="791.443" clip-path="url(#clipPath6326)" transform="matrix(0.95890403,0,0,1.0136364,13.01705,-14.016446)"/><rect id="rect6113" width="58.215" height="58.328" x="278.023" y="791.443" clip-path="url(#clipPath6322)" transform="matrix(1.0902697,0,0,1.103077,-27.372632,-84.605378)" style="fill:url(#linearGradient6781);fill-opacity:1;stroke:none;stroke-width:.24766427;filter:url(#filter6650)"/><path id="path5872" d="m 118.18352,477.94135 a 23.0602,23.0602 0 0 1 -22.9986,23.06011 l -0.0616,-23.06011 z" clip-path="url(#clipPath6318)" transform="matrix(0,-3.3685323,3.3545022,0,-1324.655,1169.9471)" style="fill:url(#linearGradient6783);fill-opacity:1;stroke:#807ead;stroke-width:.1620883;stroke-linejoin:round;stroke-miterlimit:4;stroke-dasharray:none;stroke-opacity:1;filter:url(#filter6646)"/><path id="path5876" d="m 118.18352,477.94135 a 23.0602,23.0602 0 0 1 -22.9986,23.06011 l -0.0616,-23.06011 z" clip-path="url(#clipPath6314)" transform="matrix(0,-2.8689359,2.7205234,0,-1021.2693,1124.5638)" style="fill:url(#linearGradient6785);fill-opacity:1;stroke:#807ead;stroke-width:.19502912;stroke-linejoin:round;stroke-miterlimit:4;stroke-dasharray:none;stroke-opacity:1;filter:url(#filter6642)"/><path style="fill:url(#linearGradient6787);fill-opacity:1;stroke:#807ead;stroke-width:.26817098;stroke-linejoin:round;stroke-miterlimit:4;stroke-dasharray:none;stroke-opacity:1;filter:url(#filter6638)" id="path5026" d="m 118.18352,477.94135 a 23.0602,23.0602 0 0 1 -22.9986,23.06011 l -0.0616,-23.06011 z" clip-path="url(#clipPath6310)" transform="matrix(0,-2.0692983,1.9949219,0,-674.9621,1045.1693)"/><path id="path5849" d="m 118.18352,477.94135 a 23.0602,23.0602 0 0 1 -22.9986,23.06011 l -0.0616,-23.06011 z" clip-path="url(#clipPath6306)" transform="matrix(0,-1.5204819,1.4915043,0,-434.97136,993.7839)" style="fill:url(#linearGradient6789);fill-opacity:1;stroke:none;stroke-width:.24766427;filter:url(#filter6634)"/><rect id="rect6215-8" width="59.899" height="58.9" x="279.619" y="787.715" ry="7.786" style="fill:none;stroke:#e3d7eb;stroke-width:.37149644;stroke-linecap:round;stroke-linejoin:round;stroke-miterlimit:4;stroke-dasharray:none;stroke-opacity:1"/></g><g style="clip-rule:evenodd;fill-rule:evenodd;stroke-width:4.23332071;image-rendering:optimizeQuality;shape-rendering:geometricPrecision;text-rendering:geometricPrecision" id="_1832661544240" transform="matrix(5.3341934e-6,0,0,5.3341934e-6,90.319221,59.683187)"><g id="g1622" style="stroke-width:4.23332071"><path id="path1608" d="m 10990638,12776293 c 71131,-58456 151812,-106753 242014,-144865 90187,-38140 192457,-57210 306807,-57210 v 457526 c -152449,0 -282036,53363 -388747,160116 -106712,111831 -160074,241460 -160074,388871 v 956957 h -457361 v -956957 -953123 h 457361 z" class="fil1" style="fill:#90f;stroke-width:4.23332071"/><path id="path1610" d="m 10266506,11865101 v 2672587 h -457360 v -953137 c 0,-155051 -53349,-284665 -160061,-388886 -106711,-106739 -235025,-160115 -384955,-160115 -152435,0 -282008,53376 -388747,160115 -106712,106753 -160060,236382 -160060,388886 0,149972 53348,278313 160060,385080 50830,53363 109908,93398 177248,120080 67312,26709 137821,40035 211499,40035 73706,0 141018,-12704 202006,-38112 l 163893,407928 c -116896,58469 -251549,87697 -403997,87697 -139745,0 -268682,-26059 -386852,-78162 -118142,-52103 -220411,-123899 -306807,-215402 -86382,-91502 -153722,-198269 -201992,-320258 -48256,-122004 -72405,-251632 -72405,-388886 0,-139800 24149,-270688 72405,-392691 48270,-122004 115610,-228757 201992,-320259 86396,-91489 188665,-163299 306807,-215416 118170,-52089 247107,-78148 386852,-78148 121961,0 231219,19070 327773,57182 96554,38140 181663,86438 255341,144893 v -915011 z" class="fil1" style="fill:#90f;stroke-width:4.23332071"/><path id="path1612" d="m 7259434,12578037 c 124508,0 237557,23513 339204,70537 101619,47024 188651,111832 261070,194436 72405,82604 128300,178549 167699,287848 39372,109285 59078,226210 59078,350760 v 1056070 h -457360 v -1056070 c 0,-127083 -44464,-232562 -133407,-316453 -86382,-86410 -190547,-129615 -312509,-129615 -124494,0 -229960,43205 -316328,129615 -86410,86437 -129601,191903 -129601,316453 v 1056070 h -457333 v -1906260 h 457333 v 144865 c 68613,-58456 146110,-106103 232493,-142969 86396,-36867 182949,-55287 289661,-55287 z" class="fil1" style="fill:#90f;stroke-width:4.23332071"/><path id="path1614" d="m 6032218,12627608 v 1910080 h -457360 v -953137 c 0,-152504 -53349,-282133 -160074,-388886 -106712,-106739 -236285,-160115 -388748,-160115 -73678,0 -144187,13977 -211513,41932 -67339,27954 -126418,67367 -177234,118183 -106711,106753 -160060,236382 -160060,388886 0,149972 53349,278313 160060,385080 50816,53363 109895,93398 177234,120080 67326,26709 137835,40035 211513,40035 76239,0 144838,-12704 205812,-38112 l 163893,407928 c -116883,58469 -252822,87697 -407803,87697 -139759,0 -268695,-26059 -386851,-78162 -118143,-52103 -220412,-123899 -306808,-215402 -86382,-91502 -153722,-198269 -202005,-320258 -48256,-122004 -72405,-251632 -72405,-388886 0,-139800 24149,-270688 72405,-392691 48283,-122004 115623,-228757 202005,-320259 86396,-91489 188665,-163299 306808,-215416 118156,-52089 247092,-78148 386851,-78148 124494,0 235025,19070 331579,57182 96540,38140 181663,86438 255341,144893 v -152504 z" class="fil1" style="fill:#90f;stroke-width:4.23332071"/><g id="g1620" style="stroke-width:4.23332071"><path id="path1616" d="m 12549432,14988323 v 4818011 h -824477 v -1718246 c 0,-279518 -96208,-513214 -288582,-701063 -192387,-192443 -423690,-288678 -693949,-288678 -274812,0 -508426,96235 -700799,288678 -192374,192429 -288568,426126 -288568,701063 0,270314 96194,501727 288568,694157 91599,96235 198103,168405 319497,216508 121367,48104 248477,72170 381302,72170 132839,0 254234,-22903 364156,-68738 l 295432,735425 c -210683,105383 -453472,158081 -728284,158081 -251936,0 -484388,-46969 -697368,-140893 -212993,-93938 -397355,-223373 -553111,-388332 -155728,-164960 -277109,-357403 -364142,-577344 -87032,-219940 -130542,-453623 -130542,-701034 0,-252020 43510,-488000 130542,-707941 87033,-219941 208414,-412384 364142,-577343 155756,-164959 340118,-294394 553111,-388332 212980,-93924 445432,-140893 697368,-140893 219858,0 416826,34375 590878,103099 174051,68738 327510,155784 460349,261167 v -1649522 z" class="fil1" style="fill:#90f;stroke-width:4.23332071"/><path id="path1618" d="m 6908591,16280457 c 251923,0 484374,46969 697368,140893 212993,93924 397368,223373 553097,388332 155729,164959 277123,357402 364156,577343 87018,219927 130528,455921 130528,707913 0,247439 -43510,481121 -130528,701062 -87033,219941 -208427,412371 -364156,577330 -155729,164959 -340104,294407 -553097,388346 -212994,93924 -445445,140893 -697368,140893 -270245,0 -515304,-52698 -735161,-158081 l 295431,-735425 c 109922,45821 233614,68724 371020,68724 279407,0 513006,-96221 700800,-288665 192401,-192429 288581,-423842 288581,-694184 0,-274923 -96180,-508606 -288581,-701049 -192360,-192429 -425974,-288664 -700800,-288664 -265664,0 -499278,96235 -700813,288664 -192374,192443 -288582,426126 -288582,701049 v 1443351 274922 h -824463 v -4818010 h 824463 v 1649522 c 132839,-105383 286298,-192429 460350,-261167 174051,-68724 373317,-103099 597755,-103099 z" class="fil1" style="fill:#90f;stroke-width:4.23332071"/></g></g><g id="g1634" style="stroke-width:4.23332071"><path id="path1624" d="m 3114586,12792373 c -211540,155535 -210060,405548 -149030,646344 41073,161873 39053,452406 594282,506530 -498088,-38597 -613934,-113230 -713310,-508786 -157307,-626305 19637,-719094 365415,-939215 867253,-552143 1801002,-946232 3830539,-799637 501686,-118446 1325914,-793160 2637782,-866464 1194639,-66662 2277820,218349 3394810,463173 402945,88319 941332,284056 1252748,299791 281538,14226 324673,-119485 437612,10697 86147,99308 -103155,637902 -321269,1535158 102214,-1110803 195682,-1241055 -1103344,-1538991 -1333041,-305728 -1551529,157431 -2732136,200912 580872,-118059 1234205,-526167 516826,-683155 -2167026,-474202 -3469788,687210 -4076539,801685 -693852,-70149 -2356410,-288222 -3934386,871958 z" class="fil2" style="fill:#60c;stroke-width:4.23332071"/><g id="g1632" style="stroke-width:4.23332071"><path id="path1626" d="m 11376839,14469601 289162,289260 c 36687,36728 36687,96830 0,133517 l -1194569,1194971 c -36673,36715 -96748,36715 -133476,0 l -289149,-289273 c -36715,-36729 -36715,-96859 -55,-133545 l 1194569,-1194971 c 36673,-36687 96775,-36687 133518,41 z" class="fil2" style="fill:#60c;stroke-width:4.23332071"/><path id="path1628" d="m 11347237,14124183 v 0 c 58110,-58137 153196,-58137 211333,28 l 452656,452807 c 58137,58165 58123,153279 27,211389 v 0 c -58137,58164 -153224,58192 -211361,27 l -452655,-452807 c -58151,-58165 -58151,-153279 0,-211444 z" class="fil2" style="fill:#60c;stroke-width:4.23332071"/><path id="path1630" d="m 13261787,12873192 c -393411,-393549 -1031285,-393563 -1424710,42 -393438,393577 -393438,1031645 0,1425194 393425,393591 1031327,393591 1424710,14 393494,-393563 393494,-1031631 0,-1425250 z m -324742,324895 c -214087,-214128 -561138,-214115 -775197,28 -214074,214115 -214074,561318 0,775460 214087,214156 561137,214156 775183,14 214087,-214156 214087,-561359 14,-775502 z" class="fil2" style="fill:#60c;stroke-width:4.23332071"/></g></g></g></g></g></svg>