<svg xmlns="http://www.w3.org/2000/svg" xmlns:xlink="http://www.w3.org/1999/xlink" id="svg9619" width="258.352" height="62.899" version="1.1"><defs id="defs9621"><linearGradient id="linearGradient7659" x1="304.889" x2="305.061" y1="875.072" y2="934.139" gradientTransform="translate(9.4488188,0)" gradientUnits="userSpaceOnUse" xlink:href="#linearGradient6689"/><linearGradient id="linearGradient6689"><stop id="stop6691" offset="0" style="stop-color:#3c0f51;stop-opacity:1"/><stop id="stop6693" offset="1" style="stop-color:#bea1c7;stop-opacity:1"/></linearGradient><linearGradient id="linearGradient7657" x1="304.889" x2="305.061" y1="875.072" y2="934.139" gradientTransform="translate(9.4488188,0)" gradientUnits="userSpaceOnUse" xlink:href="#linearGradient6689"/><linearGradient id="linearGradient9520"><stop id="stop9522" offset="0" style="stop-color:#3c0f51;stop-opacity:1"/><stop id="stop9524" offset="1" style="stop-color:#bea1c7;stop-opacity:1"/></linearGradient><linearGradient id="linearGradient7651" x1="304.889" x2="305.061" y1="875.072" y2="934.139" gradientTransform="translate(0.02411184,0.25472182)" gradientUnits="userSpaceOnUse" xlink:href="#linearGradient6689"/><linearGradient id="linearGradient9527"><stop id="stop9529" offset="0" style="stop-color:#3c0f51;stop-opacity:1"/><stop id="stop9531" offset="1" style="stop-color:#bea1c7;stop-opacity:1"/></linearGradient><linearGradient id="linearGradient7653" x1="304.889" x2="305.061" y1="875.072" y2="934.139" gradientTransform="translate(-11.43837,0)" gradientUnits="userSpaceOnUse" xlink:href="#linearGradient6689"/><linearGradient id="linearGradient9534"><stop id="stop9536" offset="0" style="stop-color:#3c0f51;stop-opacity:1"/><stop id="stop9538" offset="1" style="stop-color:#bea1c7;stop-opacity:1"/></linearGradient><linearGradient id="linearGradient7655" x1="304.889" x2="305.061" y1="875.072" y2="934.139" gradientTransform="translate(-15.004476,0)" gradientUnits="userSpaceOnUse" xlink:href="#linearGradient6689"/><linearGradient id="linearGradient9541"><stop id="stop9543" offset="0" style="stop-color:#3c0f51;stop-opacity:1"/><stop id="stop9545" offset="1" style="stop-color:#bea1c7;stop-opacity:1"/></linearGradient><linearGradient id="linearGradient6779" x1="319.978" x2="339.085" y1="808.275" y2="788.63" gradientUnits="userSpaceOnUse" xlink:href="#linearGradient6115"/><linearGradient id="linearGradient6115"><stop style="stop-color:#fff;stop-opacity:1" id="stop6117" offset="0"/><stop style="stop-color:#fff;stop-opacity:0" id="stop6119" offset="1"/></linearGradient><clipPath id="clipPath6326" clipPathUnits="userSpaceOnUse"><rect id="rect6328" width="62.467" height="58.107" x="278.592" y="791.352" ry="7.681" style="fill:none;stroke:#e3d7eb;stroke-width:1.52146721;stroke-linecap:round;stroke-linejoin:round;stroke-miterlimit:4;stroke-opacity:1;stroke-dasharray:none"/></clipPath><filter id="filter6654" color-interpolation-filters="sRGB"><feGaussianBlur id="feGaussianBlur6656" stdDeviation=".449"/></filter><linearGradient id="linearGradient6781" x1="295.993" x2="345.269" y1="827.13" y2="785.752" gradientUnits="userSpaceOnUse" xlink:href="#linearGradient5880"/><linearGradient id="linearGradient5880"><stop id="stop5882" offset="0" style="stop-color:#8d89c2;stop-opacity:1"/><stop id="stop5884" offset="1" style="stop-color:#fffff9;stop-opacity:.98275864"/></linearGradient><clipPath id="clipPath6322" clipPathUnits="userSpaceOnUse"><rect id="rect6324" width="54.94" height="53.396" x="282.071" y="791.18" ry="7.059" style="fill:none;stroke:#e3d7eb;stroke-width:1.36779618;stroke-linecap:round;stroke-linejoin:round;stroke-miterlimit:4;stroke-opacity:1;stroke-dasharray:none"/></clipPath><filter id="filter6650" color-interpolation-filters="sRGB"><feGaussianBlur id="feGaussianBlur6652" stdDeviation=".404"/></filter><linearGradient id="linearGradient6783" x1="113.763" x2="104.471" y1="496.373" y2="486.989" gradientUnits="userSpaceOnUse" xlink:href="#linearGradient5880"/><linearGradient id="linearGradient9564"><stop id="stop9566" offset="0" style="stop-color:#8d89c2;stop-opacity:1"/><stop id="stop9568" offset="1" style="stop-color:#fffff9;stop-opacity:.98275864"/></linearGradient><clipPath id="clipPath6318" clipPathUnits="userSpaceOnUse"><rect id="rect6320" width="17.856" height="17.485" x="478.406" y="-113.349" ry="2.311" transform="matrix(0,1,-1,0,0,0)" style="fill:none;stroke:#e3d7eb;stroke-width:.44622806;stroke-linecap:round;stroke-linejoin:round;stroke-miterlimit:4;stroke-opacity:1;stroke-dasharray:none"/></clipPath><filter id="filter6646" color-interpolation-filters="sRGB"><feGaussianBlur id="feGaussianBlur6648" stdDeviation=".132"/></filter><linearGradient id="linearGradient6785" x1="113.118" x2="102.379" y1="495.984" y2="484.347" gradientUnits="userSpaceOnUse" xlink:href="#linearGradient5880"/><linearGradient id="linearGradient9575"><stop id="stop9577" offset="0" style="stop-color:#8d89c2;stop-opacity:1"/><stop id="stop9579" offset="1" style="stop-color:#fffff9;stop-opacity:.98275864"/></linearGradient><clipPath id="clipPath6314" clipPathUnits="userSpaceOnUse"><rect id="rect6316" width="22.018" height="20.53" x="478.375" y="-117.269" ry="2.714" transform="matrix(0,1,-1,0,0,0)" style="fill:none;stroke:#e3d7eb;stroke-width:.53691387;stroke-linecap:round;stroke-linejoin:round;stroke-miterlimit:4;stroke-opacity:1;stroke-dasharray:none"/></clipPath><filter id="filter6642" color-interpolation-filters="sRGB"><feGaussianBlur id="feGaussianBlur6644" stdDeviation=".159"/></filter><linearGradient id="linearGradient6787" x1="113.11" x2="101.533" y1="496.126" y2="483.054" gradientUnits="userSpaceOnUse" xlink:href="#linearGradient5880"/><linearGradient id="linearGradient9586"><stop id="stop9588" offset="0" style="stop-color:#8d89c2;stop-opacity:1"/><stop id="stop9590" offset="1" style="stop-color:#fffff9;stop-opacity:.98275864"/></linearGradient><clipPath id="clipPath6310" clipPathUnits="userSpaceOnUse"><rect id="rect6312" width="30.026" height="28.464" x="478.777" y="-124.217" ry="3.763" transform="matrix(0,1,-1,0,0,0)" style="fill:none;stroke:#e3d7eb;stroke-width:.73827261;stroke-linecap:round;stroke-linejoin:round;stroke-miterlimit:4;stroke-opacity:1;stroke-dasharray:none"/></clipPath><filter id="filter6638" color-interpolation-filters="sRGB"><feGaussianBlur id="feGaussianBlur6640" stdDeviation=".218"/></filter><linearGradient id="linearGradient6789" x1="110.441" x2="96.31" y1="493.233" y2="479.097" gradientUnits="userSpaceOnUse" xlink:href="#linearGradient5028"/><linearGradient id="linearGradient5028"><stop style="stop-color:#6f1171;stop-opacity:1" id="stop5030" offset="0"/><stop style="stop-color:#bea1c7;stop-opacity:1" id="stop5032" offset="1"/></linearGradient><clipPath id="clipPath6306" clipPathUnits="userSpaceOnUse"><rect id="rect6308" width="40.16" height="38.738" x="479.47" y="-135.258" ry="5.121" transform="matrix(0,1,-1,0,0,0)" style="fill:none;stroke:#e3d7eb;stroke-width:.99606657;stroke-linecap:round;stroke-linejoin:round;stroke-miterlimit:4;stroke-opacity:1;stroke-dasharray:none"/></clipPath><filter id="filter6634" color-interpolation-filters="sRGB"><feGaussianBlur id="feGaussianBlur6636" stdDeviation=".294"/></filter></defs><metadata id="metadata9624"/><g id="layer1" transform="translate(-147.97005,-538.05744)"><g id="g6666" transform="translate(-130.90495,-248.91131)"><rect id="rect5036" width="58.215" height="58.328" x="278.023" y="791.443" clip-path="url(#clipPath6326)" transform="matrix(0.95890403,0,0,1.0136364,13.01705,-14.016446)" style="fill:url(#linearGradient6779);fill-opacity:1;stroke:none;filter:url(#filter6654)"/><rect style="fill:url(#linearGradient6781);fill-opacity:1;stroke:none;filter:url(#filter6650)" id="rect6113" width="58.215" height="58.328" x="278.023" y="791.443" clip-path="url(#clipPath6322)" transform="matrix(1.0902697,0,0,1.103077,-27.372632,-84.605378)"/><path style="fill:url(#linearGradient6783);fill-opacity:1;stroke:#807ead;stroke-width:.65446782;stroke-linejoin:round;stroke-miterlimit:4;stroke-opacity:1;stroke-dasharray:none;filter:url(#filter6646)" id="path5872" d="m 118.18352,477.94135 a 23.0602,23.0602 0 0 1 -22.9986,23.06011 l -0.0616,-23.06011 z" clip-path="url(#clipPath6318)" transform="matrix(0,-3.3685323,3.3545022,0,-1324.655,1169.9471)"/><path style="fill:url(#linearGradient6785);fill-opacity:1;stroke:#807ead;stroke-width:.78747362;stroke-linejoin:round;stroke-miterlimit:4;stroke-opacity:1;stroke-dasharray:none;filter:url(#filter6642)" id="path5876" d="m 118.18352,477.94135 a 23.0602,23.0602 0 0 1 -22.9986,23.06011 l -0.0616,-23.06011 z" clip-path="url(#clipPath6314)" transform="matrix(0,-2.8689359,2.7205234,0,-1021.2693,1124.5638)"/><path id="path5026" d="m 118.18352,477.94135 a 23.0602,23.0602 0 0 1 -22.9986,23.06011 l -0.0616,-23.06011 z" clip-path="url(#clipPath6310)" transform="matrix(0,-2.0692983,1.9949219,0,-674.9621,1045.1693)" style="fill:url(#linearGradient6787);fill-opacity:1;stroke:#807ead;stroke-width:1.08279979;stroke-linejoin:round;stroke-miterlimit:4;stroke-opacity:1;stroke-dasharray:none;filter:url(#filter6638)"/><path style="fill:url(#linearGradient6789);fill-opacity:1;stroke:none;filter:url(#filter6634)" id="path5849" d="m 118.18352,477.94135 a 23.0602,23.0602 0 0 1 -22.9986,23.06011 l -0.0616,-23.06011 z" clip-path="url(#clipPath6306)" transform="matrix(0,-1.5204819,1.4915043,0,-434.97136,993.7839)"/><rect style="fill:none;stroke:#e3d7eb;stroke-width:1.5;stroke-linecap:round;stroke-linejoin:round;stroke-miterlimit:4;stroke-opacity:1;stroke-dasharray:none" id="rect6215-8" width="59.899" height="58.9" x="279.619" y="787.715" ry="7.786"/></g><g style="font-size:78px;font-style:normal;font-variant:normal;font-weight:700;font-stretch:normal;text-indent:0;text-align:start;text-decoration:none;line-height:125%;letter-spacing:0;word-spacing:0;text-transform:none;direction:ltr;block-progression:tb;writing-mode:lr-tb;text-anchor:start;baseline-shift:baseline;color:#000;fill:url(#linearGradient7659);fill-opacity:1;fill-rule:nonzero;stroke:none;stroke-width:1px;marker:none;visibility:visible;display:inline;overflow:visible;enable-background:accumulate;font-family:Arial;-inkscape-font-specification:Arial Bold" id="text6660" transform="translate(14.238713,-319.25563)"><path style="fill:url(#linearGradient7657);stroke:none;marker:none" id="path7641" d="m 202.64563,914.35846 0,-55.83398 16.87207,0 10.13086,38.08593 10.0166,-38.08593 16.91016,0 0,55.83398 -10.47364,0 0,-43.95117 -11.083,43.95117 -10.8545,0 -11.04492,-43.95117 0,43.95117 -10.47363,0"/><path style="fill:url(#linearGradient7651);stroke:none;marker:none" id="path7643" d="m 303.36545,907.5292 c 2.76753,1.98047 5.77631,3.55469 9.02637,4.72265 l -4.15137,7.95996 c -1.70122,-0.50782 -3.36431,-1.20606 -4.98926,-2.09472 -0.35552,-0.17774 -2.85649,-1.82813 -7.50293,-4.95118 -3.65629,1.59961 -7.70609,2.39942 -12.14941,2.39942 -8.58205,0 -15.31056,-2.52637 -20.18555,-7.5791 -4.84961,-5.05273 -7.27441,-12.1494 -7.27441,-21.29004 0,-9.1152 2.43749,-16.19918 7.3125,-21.25196 4.87498,-5.07807 11.48923,-7.61713 19.84277,-7.61718 8.27731,5e-5 14.84078,2.53911 19.69043,7.61718 4.84956,5.05278 7.27436,12.13676 7.27442,21.25196 -6e-5,4.82424 -0.67291,9.06447 -2.01856,12.7207 -1.01568,2.79298 -2.64068,5.49708 -4.875,8.11231 m -9.06445,-6.36036 c 1.44722,-1.70115 2.52632,-3.75779 3.2373,-6.16992 0.73629,-2.41209 1.10445,-5.17966 1.10449,-8.30273 -4e-5,-6.44919 -1.42191,-11.26071 -4.26562,-14.43457 -2.84379,-3.19918 -6.56351,-4.79878 -11.15918,-4.79883 -4.59573,5e-5 -8.32815,1.59965 -11.19727,4.79883 -2.84376,3.19925 -4.26564,8.01077 -4.26562,14.43457 -2e-5,6.52541 1.42186,11.4131 4.26562,14.66308 2.86912,3.22462 6.48728,4.83693 10.8545,4.83692 1.62497,10e-6 3.1611,-0.2666 4.6084,-0.79981 -2.28519,-1.49803 -4.60843,-2.666 -6.96973,-3.5039 l 3.16113,-6.43653 c 3.707,1.26955 7.24899,3.17385 10.62598,5.71289"/><path style="fill:url(#linearGradient7653);stroke:none;marker:none" id="path7645" d="m 320.16274,914.35846 0,-46.38867 -16.56739,0 0,-9.44531 44.37012,0 0,9.44531 -16.5293,0 0,46.38867 -11.27343,0"/><path style="fill:url(#linearGradient7655);stroke:none;marker:none" id="path7647" d="m 364.28023,914.35846 0,-46.38867 -16.56738,0 0,-9.44531 44.37011,0 0,9.44531 -16.52929,0 0,46.38867 -11.27344,0"/></g><text style="font-size:18.07550621px;font-style:normal;font-variant:normal;font-weight:700;font-stretch:normal;text-indent:0;text-align:start;text-decoration:none;line-height:125%;letter-spacing:0;word-spacing:0;text-transform:none;direction:ltr;block-progression:tb;writing-mode:lr-tb;text-anchor:start;baseline-shift:baseline;color:#000;fill:#3c0f51;fill-opacity:1;fill-rule:nonzero;stroke:none;stroke-width:1px;marker:none;visibility:visible;display:inline;overflow:visible;enable-background:accumulate;font-family:Droid Sans;-inkscape-font-specification:Arial Bold" id="text6731" x="565.27" y="-382.344" transform="matrix(0,0.97339431,-1.0273329,0,0,0)" xml:space="preserve"><tspan id="tspan6733" x="565.27" y="-382.344" style="font-style:normal;font-variant:normal;font-weight:700;font-stretch:normal;fill:#3c0f51;fill-opacity:1;stroke:none;font-family:Arial;-inkscape-font-specification:Arial Bold">.ORG</tspan></text></g></svg>